<svg xmlns="http://www.w3.org/2000/svg" width="462" height="540" viewBox="0 0 462 540">
<g>
<path d="M 418.89 250.10 C416.39,252.44 414.89,253.00 411.14,253.00 C402.21,252.99 396.00,246.46 396.00,237.08 C396.00,231.05 397.69,227.28 402.04,223.62 C404.59,221.47 406.17,221.00 410.77,221.00 C415.51,221.00 416.83,221.42 419.20,223.69 L 422.00 226.37 L 422.00 223.69 C422.00,221.67 422.50,221.00 424.00,221.00 C425.91,221.00 426.00,221.67 426.00,236.50 C426.00,251.33 425.91,252.00 424.00,252.00 C422.56,252.00 422.00,251.33 422.00,249.60 L 422.00 247.20 ZM 348.00 251.50 C342.09,254.56 333.25,252.67 329.17,247.49 C323.04,239.69 324.51,228.61 332.41,223.20 C336.03,220.72 344.55,220.16 348.32,222.16 C354.04,225.19 357.74,233.21 356.50,239.91 C355.68,244.31 351.88,249.49 348.00,251.50 ZM 266.47 249.90 C263.48,252.52 262.13,253.00 257.72,253.00 C251.56,252.99 246.96,250.57 243.94,245.76 C242.28,243.11 241.96,241.22 242.24,235.64 C242.56,229.06 242.74,228.63 246.75,224.89 C250.62,221.28 251.35,221.00 256.83,221.00 C261.19,221.00 263.39,221.52 265.24,222.97 C268.39,225.45 271.00,230.86 271.00,234.90 L 271.00 238.00 L 258.50 238.00 C244.82,238.00 244.49,238.17 247.41,243.84 C250.55,249.89 259.84,251.44 264.76,246.73 C266.33,245.23 268.15,244.00 268.80,244.00 C271.09,244.00 269.98,246.81 266.47,249.90 ZM 225.28 251.63 C221.56,253.22 213.97,253.27 209.19,251.74 C204.75,250.31 198.82,243.35 197.12,237.57 C195.56,232.26 196.19,223.45 198.43,219.16 C201.71,212.88 209.65,208.00 216.60,208.00 C224.88,208.00 234.00,213.19 234.00,217.90 C234.00,220.72 231.42,220.58 229.50,217.65 C225.20,211.08 212.84,209.96 206.85,215.58 C202.65,219.53 201.00,223.83 201.02,230.72 C201.05,241.45 207.75,249.00 217.24,249.00 C225.32,249.00 229.97,245.01 231.52,236.75 L 232.22 233.00 L 223.61 233.00 C216.62,233.00 215.00,232.72 215.00,231.50 C215.00,230.26 216.83,230.00 225.50,230.00 L 236.00 230.00 L 236.00 233.37 C236.00,241.20 231.41,249.02 225.28,251.63 ZM 338.30 249.30 C339.51,249.54 340.85,249.79 341.28,249.86 C341.71,249.94 343.59,249.36 345.47,248.58 C352.34,245.71 354.51,233.85 349.25,227.95 C345.59,223.86 339.86,223.04 335.23,225.95 C329.02,229.84 327.93,239.58 333.05,245.40 C334.72,247.31 337.09,249.07 338.30,249.30 ZM 407.50 248.61 C410.65,250.01 415.52,249.56 417.90,247.63 C422.27,244.11 423.23,234.13 419.72,228.90 C412.88,218.73 398.64,226.04 400.39,238.82 C401.09,243.90 403.07,246.64 407.50,248.61 ZM 329.00 312.00 C327.66,314.63 326.28,316.00 324.98,316.00 C323.89,316.00 323.00,315.76 323.00,315.47 C323.00,315.18 325.19,310.12 327.87,304.22 C330.55,298.33 333.67,291.36 334.81,288.75 C336.44,285.03 337.39,284.01 339.19,284.03 C341.09,284.06 342.11,285.43 344.96,291.78 C346.86,296.03 350.10,303.01 352.16,307.30 C355.18,313.60 355.62,315.21 354.44,315.66 C352.53,316.39 350.52,314.66 348.99,310.97 C347.76,308.01 347.72,308.00 339.40,308.00 L 331.04 308.00 ZM 288.12 306.25 C288.03,313.65 287.68,316.00 286.67,316.00 C285.93,316.00 285.03,315.70 284.67,315.33 C284.30,314.97 284.00,307.74 284.00,299.26 C284.00,284.08 284.03,283.87 286.15,284.18 C287.60,284.40 290.00,287.23 293.59,293.00 C294.36,294.24 295.05,295.36 295.67,296.37 C298.64,301.21 300.05,303.52 301.38,303.47 C302.87,303.42 304.26,300.44 307.61,294.80 C311.97,287.44 314.33,284.41 315.88,284.18 C318.04,283.86 318.05,283.94 317.78,299.66 C317.53,313.80 317.31,315.51 315.75,315.81 C314.17,316.11 314.00,315.08 314.00,304.99 C314.00,298.32 313.62,293.97 313.04,294.17 C312.52,294.35 309.93,298.06 307.29,302.42 C304.66,306.77 302.01,310.50 301.41,310.70 C300.81,310.90 298.01,307.45 295.20,303.03 C292.39,298.61 289.62,295.00 289.04,295.00 C288.47,295.00 288.05,295.34 288.12,295.75 C288.18,296.16 288.18,300.89 288.12,306.25 ZM 252.26 311.74 C250.16,316.18 246.35,317.73 247.35,313.73 C247.70,312.37 249.73,307.48 251.87,302.88 C254.01,298.27 256.77,292.14 258.00,289.25 C259.74,285.19 260.74,284.00 262.45,284.00 C264.18,284.00 265.27,285.34 267.52,290.25 C269.09,293.69 272.29,300.62 274.62,305.66 C276.94,310.70 278.58,315.08 278.26,315.41 C276.77,316.90 274.87,315.67 273.00,312.00 L 270.96 308.00 L 254.02 308.00 ZM 399.62 312.00 C398.49,314.81 397.42,316.00 396.01,316.00 C394.90,316.00 394.00,315.52 394.00,314.94 C394.00,314.36 396.49,308.40 399.54,301.69 L 399.94 300.81 C404.98,289.71 407.39,284.39 409.77,284.41 C412.01,284.43 414.22,289.25 418.59,298.50 C422.22,306.20 425.26,313.16 425.35,313.96 C425.43,314.77 424.76,315.58 423.86,315.76 C422.75,315.99 421.61,314.79 420.36,312.08 L 418.50 308.05 L 409.86 308.03 L 401.22 308.00 ZM 365.00 304.50 C365.00,315.33 364.88,316.00 363.00,316.00 C361.08,316.00 361.00,315.33 361.00,300.00 C361.00,279.59 361.21,279.53 374.14,295.75 L 383.50 307.50 L 383.78 295.75 C384.04,284.83 384.20,284.00 386.03,284.00 C387.91,284.00 388.00,284.75 388.00,300.00 C388.00,312.96 387.74,316.00 386.62,316.00 C385.08,316.00 381.41,312.02 372.50,300.66 C369.20,296.46 366.16,293.01 365.75,293.01 C365.34,293.00 365.00,298.17 365.00,304.50 ZM 297.27 250.18 C294.24,253.21 284.59,253.91 281.00,251.36 C277.93,249.19 276.07,246.90 276.03,245.25 C275.98,243.14 279.10,243.86 281.12,246.42 C283.53,249.49 288.22,250.57 292.12,248.95 C294.75,247.86 295.07,247.29 294.80,244.11 C294.51,240.59 294.33,240.45 287.50,238.25 C283.65,237.02 279.71,235.05 278.75,233.89 C276.24,230.86 276.54,226.37 279.45,223.45 C281.51,221.40 282.86,221.01 287.70,221.03 C293.79,221.07 295.90,222.04 297.87,225.75 C298.89,227.65 298.82,228.00 297.44,228.00 C296.55,228.00 294.67,227.10 293.27,226.00 C290.23,223.60 286.26,223.43 283.22,225.56 C278.46,228.90 281.47,233.26 289.78,235.05 C297.07,236.61 299.45,238.79 299.45,243.89 C299.45,246.77 298.81,248.64 297.27,250.18 ZM 321.42 252.39 C317.02,254.08 310.27,251.91 308.87,248.36 C308.47,247.34 308.11,241.69 308.07,235.82 L 308.00 225.13 L 305.25 224.82 C303.61,224.63 302.50,223.89 302.50,223.00 C302.50,222.11 303.61,221.37 305.25,221.18 C307.84,220.89 308.00,220.57 308.00,215.93 C308.00,211.67 308.27,211.00 310.00,211.00 C311.73,211.00 312.00,211.67 312.00,216.00 L 312.00 221.00 L 317.00 221.00 C321.33,221.00 322.00,221.27 322.00,223.00 C322.00,224.73 321.33,225.00 317.00,225.00 L 312.00 225.00 L 312.00 235.35 C312.00,247.19 312.97,249.00 319.33,249.00 C323.16,249.00 324.52,251.20 321.42,252.39 ZM 368.16 241.41 C367.86,252.04 367.67,253.00 365.91,253.00 C364.13,253.00 364.00,252.15 363.99,240.75 C363.98,234.01 363.69,226.77 363.34,224.66 C362.75,221.04 362.85,220.84 365.10,221.16 C366.83,221.41 367.58,222.23 367.80,224.12 L 368.11 226.74 L 370.98 223.87 C374.43,220.42 379.00,219.92 379.00,223.00 C379.00,224.45 378.33,225.00 376.56,225.00 C375.21,225.00 372.85,226.09 371.31,227.41 C368.58,229.76 368.49,230.14 368.16,241.41 ZM 246.57 234.12 C246.90,234.65 251.46,234.94 256.83,234.79 L 266.50 234.50 L 266.29 231.56 C265.99,227.46 262.99,224.86 257.86,224.29 C254.39,223.90 252.93,224.26 250.68,226.03 C247.69,228.39 245.59,232.53 246.57,234.12 ZM 388.73 239.99 C388.53,250.70 388.27,252.52 386.84,252.79 C385.93,252.97 384.92,252.68 384.59,252.15 C384.27,251.62 384.17,244.51 384.38,236.35 C384.69,223.87 385.00,221.45 386.32,221.19 C388.48,220.76 389.00,224.84 388.73,239.99 ZM 256.00 303.48 C256.00,303.77 258.92,304.00 262.50,304.00 C266.08,304.00 269.00,303.84 269.00,303.64 C269.00,302.65 262.90,290.00 262.43,290.00 C261.90,290.00 256.00,302.38 256.00,303.48 ZM 404.33 300.75 L 402.97 304.00 L 409.55 304.00 L 409.78 304.00 C413.02,304.00 414.81,304.00 415.38,303.17 C416.07,302.15 414.93,299.88 412.39,294.83 L 412.25 294.54 L 409.76 289.59 L 407.72 293.54 C406.61,295.72 405.08,298.96 404.33,300.75 ZM 333.00 303.25 C333.00,303.66 335.90,304.00 339.44,304.00 L 345.89 304.00 L 342.79 297.00 C341.09,293.15 339.42,290.00 339.07,290.00 C338.44,290.00 333.00,301.86 333.00,303.25 ZM 389.00 212.50 C388.32,213.32 387.12,214.00 386.35,214.00 C385.57,214.00 384.68,213.32 384.36,212.50 C382.94,208.79 386.50,206.49 389.00,209.50 C389.99,210.70 389.99,211.30 389.00,212.50 Z" fill="rgb(8,8,8)"/>
<path d="M 144.50 340.50 L 138.50 343.50 L 33.00 344.05 L 33.00 277.56 C33.00,213.73 33.08,210.86 34.98,205.79 C37.20,199.85 44.23,191.26 49.54,187.98 C57.18,183.25 60.17,183.02 114.78,183.01 L 166.07 183.00 L 165.50 316.50 L 162.89 322.00 C159.45,329.23 151.95,336.77 144.50,340.50 ZM 101.35 296.25 C103.75,302.06 105.97,300.76 107.43,292.69 C108.23,288.23 106.86,283.30 103.13,277.19 C99.82,271.77 92.90,268.37 81.36,266.50 C72.20,265.02 67.27,263.09 72.50,263.02 C82.76,262.90 92.13,255.11 96.02,243.47 C100.49,230.09 98.39,211.85 91.20,201.51 C84.09,191.30 71.09,188.32 60.50,194.48 C54.92,197.73 52.60,200.49 49.04,208.09 C43.41,220.12 44.02,236.42 50.55,248.92 C53.20,253.99 56.49,257.04 63.52,260.98 C66.26,262.51 66.72,263.02 65.00,262.62 C63.62,262.29 61.87,262.02 61.11,262.01 C60.34,262.01 56.63,258.85 52.86,255.00 C49.10,251.15 45.61,248.00 45.11,248.00 C43.43,248.00 42.92,251.37 43.58,258.15 C44.19,264.28 44.67,265.40 48.76,270.21 C56.01,278.72 58.34,279.84 74.50,282.53 C92.92,285.60 95.09,286.25 97.53,289.48 C98.78,291.14 100.50,294.19 101.35,296.25 ZM 98.75 263.31 C104.96,264.93 106.09,263.92 110.53,252.75 L 113.21 246.00 L 141.64 246.00 L 144.92 253.97 C148.84,263.46 149.82,264.44 154.49,263.57 C156.42,263.21 158.00,262.79 158.00,262.64 C158.00,261.90 152.91,249.69 150.23,244.00 C148.55,240.43 142.81,227.60 137.48,215.50 C132.16,203.40 127.58,193.28 127.32,193.00 C126.44,192.09 124.19,196.07 120.93,204.33 C119.15,208.83 115.80,217.00 113.48,222.50 C104.27,244.31 97.00,261.91 97.00,262.37 C97.00,262.64 97.79,263.06 98.75,263.31 ZM 80.23 255.03 C78.59,256.33 76.19,257.00 73.23,257.00 C69.27,257.00 68.23,256.49 64.47,252.73 C60.06,248.33 58.71,244.99 56.93,234.12 C54.73,220.66 57.07,207.14 62.70,200.91 C69.00,193.94 75.85,194.85 81.40,203.39 C85.69,209.98 87.36,217.22 87.43,229.50 C87.49,238.76 87.12,241.49 85.11,246.78 C83.80,250.24 81.61,253.95 80.23,255.03 ZM 66.32 336.36 C74.37,339.21 86.40,337.54 90.51,332.99 C92.14,331.18 92.11,331.07 89.86,330.61 C88.56,330.34 84.75,329.92 81.39,329.67 C73.54,329.09 67.82,326.49 61.20,320.51 C55.02,314.93 52.43,310.33 50.62,301.72 L 49.31 295.50 L 48.05 300.00 C44.22,313.58 53.37,331.77 66.32,336.36 ZM 137.00 237.04 C137.00,237.57 135.09,237.91 132.75,237.81 C123.62,237.40 117.00,236.89 117.00,236.58 C117.00,236.22 122.91,221.62 125.31,216.04 L 126.79 212.59 L 129.98 219.54 C134.01,228.35 137.00,235.79 137.00,237.04 ZM 96.00 202.50 C96.00,203.10 99.41,203.44 104.57,203.34 C113.94,203.17 117.00,201.71 117.00,197.42 C117.00,194.99 112.76,191.00 110.18,191.00 C105.20,191.00 96.02,198.44 96.00,202.50 Z" fill="rgb(63,71,74)"/>
<path d="M 101.35 296.25 C100.50,294.19 98.78,291.14 97.53,289.48 C95.09,286.25 92.92,285.60 74.50,282.53 C58.34,279.84 56.01,278.72 48.76,270.21 C44.67,265.40 44.19,264.28 43.58,258.15 C42.92,251.37 43.43,248.00 45.11,248.00 C45.61,248.00 49.10,251.15 52.86,255.00 C56.63,258.85 60.34,262.01 61.11,262.01 C61.87,262.02 63.62,262.29 65.00,262.62 C66.72,263.02 66.26,262.51 63.52,260.98 C56.49,257.04 53.20,253.99 50.55,248.92 C49.39,246.69 48.41,244.34 47.62,241.91 C50.71,250.98 56.64,257.88 64.58,260.99 C68.27,262.42 71.56,263.07 74.65,262.89 C73.94,262.97 73.22,263.02 72.50,263.02 C67.27,263.09 72.20,265.02 81.36,266.50 C92.90,268.37 99.82,271.77 103.13,277.19 C106.86,283.30 108.23,288.23 107.43,292.69 C105.97,300.76 103.75,302.06 101.35,296.25 ZM 429.00 268.50 C429.00,269.83 415.47,270.00 311.92,270.00 C218.69,270.00 194.92,269.75 195.25,268.75 C195.58,267.76 220.07,267.45 312.33,267.25 C415.63,267.02 429.00,267.16 429.00,268.50 ZM 428.75 189.75 C429.08,190.75 405.42,191.00 312.64,191.00 C203.67,191.00 190.34,190.71 196.19,188.49 C196.91,188.21 249.44,188.10 312.92,188.24 C404.18,188.45 428.42,188.76 428.75,189.75 ZM 92.94 250.17 C90.41,254.36 87.07,257.71 83.27,259.94 C85.01,258.83 86.74,257.39 88.50,255.63 C90.22,253.91 91.70,252.10 92.94,250.17 ZM 86.52 196.45 C88.26,197.87 89.83,199.56 91.20,201.51 C93.21,204.41 94.83,207.93 96.01,211.78 C93.99,205.27 90.72,200.02 86.52,196.45 ZM 45.33 230.03 C44.82,222.81 45.86,215.58 48.48,209.35 C46.85,213.60 45.69,218.34 45.38,222.59 C45.19,225.13 45.17,227.62 45.33,230.03 ZM 96.95 215.29 C98.32,221.25 98.72,227.78 98.04,233.96 C98.22,231.94 98.30,229.79 98.29,227.50 C98.26,223.13 97.80,219.03 96.95,215.29 ZM 57.89 196.14 C58.68,195.59 59.54,195.04 60.50,194.48 C63.00,193.03 65.64,192.08 68.30,191.62 C64.90,192.27 61.02,193.99 57.89,196.14 Z" fill="rgb(155,73,74)"/>
<path d="M 0.00 270.00 L 0.00 0.00 L 231.00 0.00 L 462.00 0.00 L 462.00 270.00 L 462.00 540.00 L 231.00 540.00 L 0.00 540.00 L 0.00 270.00 ZM 144.50 340.50 C151.95,336.77 159.45,329.23 162.89,322.00 L 165.50 316.50 L 165.78 249.75 L 166.07 183.00 L 114.78 183.01 C60.17,183.02 57.18,183.25 49.54,187.98 C44.23,191.26 37.20,199.85 34.98,205.79 C33.08,210.86 33.00,213.73 33.00,277.56 L 33.00 344.05 L 85.75 343.78 L 138.50 343.50 L 144.50 340.50 ZM 252.26 311.74 L 254.02 308.00 L 262.49 308.00 L 270.96 308.00 L 273.00 312.00 C274.87,315.67 276.77,316.90 278.26,315.41 C278.58,315.08 276.94,310.70 274.62,305.66 C272.29,300.62 269.09,293.69 267.52,290.25 C265.27,285.34 264.18,284.00 262.45,284.00 C260.74,284.00 259.74,285.19 258.00,289.25 C256.77,292.14 254.01,298.27 251.87,302.88 C249.73,307.48 247.70,312.37 247.35,313.73 C246.35,317.73 250.16,316.18 252.26,311.74 ZM 288.12 306.25 C288.18,300.89 288.18,296.16 288.12,295.75 C288.05,295.34 288.47,295.00 289.04,295.00 C289.62,295.00 292.39,298.61 295.20,303.03 C298.01,307.45 300.81,310.90 301.41,310.70 C302.01,310.50 304.66,306.77 307.29,302.42 C309.93,298.06 312.52,294.35 313.04,294.17 C313.62,293.97 314.00,298.32 314.00,304.99 C314.00,315.08 314.17,316.11 315.75,315.81 C317.31,315.51 317.53,313.80 317.78,299.66 C318.05,283.94 318.04,283.86 315.88,284.18 C314.33,284.41 311.97,287.44 307.61,294.80 C300.63,306.55 302.16,306.75 293.59,293.00 C290.00,287.23 287.60,284.40 286.15,284.18 C284.03,283.87 284.00,284.08 284.00,299.26 C284.00,307.74 284.30,314.97 284.67,315.33 C285.03,315.70 285.93,316.00 286.67,316.00 C287.68,316.00 288.03,313.65 288.12,306.25 ZM 329.00 312.00 L 331.04 308.00 L 339.40 308.00 C347.72,308.00 347.76,308.01 348.99,310.97 C350.52,314.66 352.53,316.39 354.44,315.66 C355.62,315.21 355.18,313.60 352.16,307.30 C350.10,303.01 346.86,296.03 344.96,291.78 C342.11,285.43 341.09,284.06 339.19,284.03 C337.39,284.01 336.44,285.03 334.81,288.75 C333.67,291.36 330.55,298.33 327.87,304.22 C325.19,310.12 323.00,315.18 323.00,315.47 C323.00,315.76 323.89,316.00 324.98,316.00 C326.28,316.00 327.66,314.63 329.00,312.00 ZM 365.00 304.50 C365.00,298.17 365.34,293.00 365.75,293.01 C366.16,293.01 369.20,296.46 372.50,300.66 C381.41,312.02 385.08,316.00 386.62,316.00 C387.74,316.00 388.00,312.96 388.00,300.00 C388.00,284.75 387.91,284.00 386.03,284.00 C384.20,284.00 384.04,284.83 383.78,295.75 L 383.50 307.50 L 374.14 295.75 C361.21,279.53 361.00,279.59 361.00,300.00 C361.00,315.33 361.08,316.00 363.00,316.00 C364.88,316.00 365.00,315.33 365.00,304.50 ZM 399.62 312.00 L 401.22 308.00 L 409.86 308.03 L 418.50 308.05 L 420.36 312.08 C421.61,314.79 422.75,315.99 423.86,315.76 C424.76,315.58 425.43,314.77 425.35,313.96 C425.26,313.16 422.22,306.20 418.59,298.50 C409.50,279.23 409.76,279.19 399.54,301.69 C396.49,308.40 394.00,314.36 394.00,314.94 C394.00,315.52 394.90,316.00 396.01,316.00 C397.42,316.00 398.49,314.81 399.62,312.00 ZM 429.00 268.50 C429.00,267.16 415.63,267.02 312.33,267.25 C220.07,267.45 195.58,267.76 195.25,268.75 C194.92,269.75 218.69,270.00 311.92,270.00 C415.47,270.00 429.00,269.83 429.00,268.50 ZM 225.28 251.63 C231.41,249.02 236.00,241.20 236.00,233.37 L 236.00 230.00 L 225.50 230.00 C216.83,230.00 215.00,230.26 215.00,231.50 C215.00,232.72 216.62,233.00 223.61,233.00 L 232.22 233.00 L 231.52 236.75 C229.97,245.01 225.32,249.00 217.24,249.00 C207.75,249.00 201.05,241.45 201.02,230.72 C201.00,223.83 202.65,219.53 206.85,215.58 C212.84,209.96 225.20,211.08 229.50,217.65 C231.42,220.58 234.00,220.72 234.00,217.90 C234.00,213.19 224.88,208.00 216.60,208.00 C209.65,208.00 201.71,212.88 198.43,219.16 C196.19,223.45 195.56,232.26 197.12,237.57 C198.82,243.35 204.75,250.31 209.19,251.74 C213.97,253.27 221.56,253.22 225.28,251.63 ZM 266.47 249.90 C269.98,246.81 271.09,244.00 268.80,244.00 C268.15,244.00 266.33,245.23 264.76,246.73 C259.84,251.44 250.55,249.89 247.41,243.84 C244.49,238.17 244.82,238.00 258.50,238.00 L 271.00 238.00 L 271.00 234.90 C271.00,230.86 268.39,225.45 265.24,222.97 C263.39,221.52 261.19,221.00 256.83,221.00 C251.35,221.00 250.62,221.28 246.75,224.89 C242.74,228.63 242.56,229.06 242.24,235.64 C241.96,241.22 242.28,243.11 243.94,245.76 C246.96,250.57 251.56,252.99 257.72,253.00 C262.13,253.00 263.48,252.52 266.47,249.90 ZM 297.27 250.18 C298.81,248.64 299.45,246.77 299.45,243.89 C299.45,238.79 297.07,236.61 289.78,235.05 C281.47,233.26 278.46,228.90 283.22,225.56 C286.26,223.43 290.23,223.60 293.27,226.00 C294.67,227.10 296.55,228.00 297.44,228.00 C298.82,228.00 298.89,227.65 297.87,225.75 C295.90,222.04 293.79,221.07 287.70,221.03 C282.86,221.01 281.51,221.40 279.45,223.45 C276.54,226.37 276.24,230.86 278.75,233.89 C279.71,235.05 283.65,237.02 287.50,238.25 C294.33,240.45 294.51,240.59 294.80,244.11 C295.07,247.29 294.75,247.86 292.12,248.95 C288.22,250.57 283.53,249.49 281.12,246.42 C279.10,243.86 275.98,243.14 276.03,245.25 C276.07,246.90 277.93,249.19 281.00,251.36 C284.59,253.91 294.24,253.21 297.27,250.18 ZM 321.42 252.39 C324.52,251.20 323.16,249.00 319.33,249.00 C312.97,249.00 312.00,247.19 312.00,235.35 L 312.00 225.00 L 317.00 225.00 C321.33,225.00 322.00,224.73 322.00,223.00 C322.00,221.27 321.33,221.00 317.00,221.00 L 312.00 221.00 L 312.00 216.00 C312.00,211.67 311.73,211.00 310.00,211.00 C308.27,211.00 308.00,211.67 308.00,215.93 C308.00,220.57 307.84,220.89 305.25,221.18 C303.61,221.37 302.50,222.11 302.50,223.00 C302.50,223.89 303.61,224.63 305.25,224.82 L 308.00 225.13 L 308.07 235.82 C308.11,241.69 308.47,247.34 308.87,248.36 C310.27,251.91 317.02,254.08 321.42,252.39 ZM 348.00 251.50 C351.88,249.49 355.68,244.31 356.50,239.91 C357.74,233.21 354.04,225.19 348.32,222.16 C344.55,220.16 336.03,220.72 332.41,223.20 C324.51,228.61 323.04,239.69 329.17,247.49 C333.25,252.67 342.09,254.56 348.00,251.50 ZM 368.16 241.41 C368.49,230.14 368.58,229.76 371.31,227.41 C372.85,226.09 375.21,225.00 376.56,225.00 C378.33,225.00 379.00,224.45 379.00,223.00 C379.00,219.92 374.43,220.42 370.98,223.87 L 368.11 226.74 L 367.80 224.12 C367.58,222.23 366.83,221.41 365.10,221.16 C362.85,220.84 362.75,221.04 363.34,224.66 C363.69,226.77 363.98,234.01 363.99,240.75 C364.00,252.15 364.13,253.00 365.91,253.00 C367.67,253.00 367.86,252.04 368.16,241.41 ZM 388.73 239.99 C389.00,224.84 388.48,220.76 386.32,221.19 C385.00,221.45 384.69,223.87 384.38,236.35 C384.17,244.51 384.27,251.62 384.59,252.15 C384.92,252.68 385.93,252.97 386.84,252.79 C388.27,252.52 388.53,250.70 388.73,239.99 ZM 418.89 250.10 L 422.00 247.20 L 422.00 249.60 C422.00,251.33 422.56,252.00 424.00,252.00 C425.91,252.00 426.00,251.33 426.00,236.50 C426.00,221.67 425.91,221.00 424.00,221.00 C422.50,221.00 422.00,221.67 422.00,223.69 L 422.00 226.37 L 419.20 223.69 C416.83,221.42 415.51,221.00 410.77,221.00 C406.17,221.00 404.59,221.47 402.04,223.62 C397.69,227.28 396.00,231.05 396.00,237.08 C396.00,246.46 402.21,252.99 411.14,253.00 C414.89,253.00 416.39,252.44 418.89,250.10 ZM 389.00 212.50 C389.99,211.30 389.99,210.70 389.00,209.50 C386.50,206.49 382.94,208.79 384.36,212.50 C384.68,213.32 385.57,214.00 386.35,214.00 C387.12,214.00 388.32,213.32 389.00,212.50 ZM 428.75 189.75 C428.42,188.76 404.18,188.45 312.92,188.24 C249.44,188.10 196.91,188.21 196.19,188.49 C190.34,190.71 203.67,191.00 312.64,191.00 C405.42,191.00 429.08,190.75 428.75,189.75 ZM 66.32 336.36 C53.37,331.77 44.22,313.58 48.05,300.00 L 49.31 295.50 L 50.62 301.72 C52.43,310.33 55.02,314.93 61.20,320.51 C67.82,326.49 73.54,329.09 81.39,329.67 C84.75,329.92 88.56,330.34 89.86,330.61 C92.11,331.07 92.14,331.18 90.51,332.99 C86.40,337.54 74.37,339.21 66.32,336.36 ZM 98.75 263.31 C97.79,263.06 97.00,262.64 97.00,262.37 C97.00,261.91 104.27,244.31 113.48,222.50 C115.80,217.00 119.15,208.83 120.93,204.33 C124.19,196.07 126.44,192.09 127.32,193.00 C127.58,193.28 132.16,203.40 137.48,215.50 C142.81,227.60 148.55,240.43 150.23,244.00 C152.91,249.69 158.00,261.90 158.00,262.64 C158.00,262.79 156.42,263.21 154.49,263.57 C149.82,264.44 148.84,263.46 144.92,253.97 L 141.64 246.00 L 127.42 246.00 L 113.21 246.00 L 110.53 252.75 C106.09,263.92 104.96,264.93 98.75,263.31 ZM 137.00 237.04 C137.00,235.79 134.01,228.35 129.98,219.54 L 126.79 212.59 L 125.31 216.04 C122.91,221.62 117.00,236.22 117.00,236.58 C117.00,236.89 123.62,237.40 132.75,237.81 C135.09,237.91 137.00,237.57 137.00,237.04 ZM 64.58 260.99 C51.63,255.93 44.03,240.74 45.38,222.59 C46.00,214.16 49.93,203.85 54.31,199.15 C57.71,195.51 64.05,192.22 69.07,191.49 C85.74,189.07 98.14,204.34 98.29,227.50 C98.37,240.35 95.48,248.65 88.50,255.63 C80.99,263.15 74.07,264.69 64.58,260.99 ZM 80.23 255.03 C81.61,253.95 83.80,250.24 85.11,246.78 C87.12,241.49 87.49,238.76 87.43,229.50 C87.36,217.22 85.69,209.98 81.40,203.39 C75.85,194.85 69.00,193.94 62.70,200.91 C57.07,207.14 54.73,220.66 56.93,234.12 C58.71,244.99 60.06,248.33 64.47,252.73 C68.23,256.49 69.27,257.00 73.23,257.00 C76.19,257.00 78.59,256.33 80.23,255.03 ZM 96.00 202.50 C96.02,198.44 105.20,191.00 110.18,191.00 C112.76,191.00 117.00,194.99 117.00,197.42 C117.00,201.71 113.94,203.17 104.57,203.34 C99.41,203.44 96.00,203.10 96.00,202.50 ZM 256.00 303.48 C256.00,302.38 261.90,290.00 262.43,290.00 C262.90,290.00 269.00,302.65 269.00,303.64 C269.00,303.84 266.08,304.00 262.50,304.00 C258.92,304.00 256.00,303.77 256.00,303.48 ZM 333.00 303.25 C333.00,301.86 338.44,290.00 339.07,290.00 C339.42,290.00 341.09,293.15 342.79,297.00 L 345.89 304.00 L 339.44 304.00 C335.90,304.00 333.00,303.66 333.00,303.25 ZM 404.33 300.75 C405.08,298.96 406.61,295.72 407.72,293.54 L 409.76 289.59 L 412.25 294.54 C417.05,304.10 417.08,304.00 409.55,304.00 L 402.97 304.00 L 404.33 300.75 ZM 246.57 234.12 C245.59,232.53 247.69,228.39 250.68,226.03 C252.93,224.26 254.39,223.90 257.86,224.29 C262.99,224.86 265.99,227.46 266.29,231.56 L 266.50 234.50 L 256.83 234.79 C251.46,234.94 246.90,234.65 246.57,234.12 ZM 338.30 249.30 C337.09,249.07 334.72,247.31 333.05,245.40 C327.93,239.58 329.02,229.84 335.23,225.95 C339.86,223.04 345.59,223.86 349.25,227.95 C354.51,233.85 352.34,245.71 345.47,248.58 C343.59,249.36 341.71,249.94 341.28,249.86 C340.85,249.79 339.51,249.54 338.30,249.30 ZM 407.50 248.61 C403.07,246.64 401.09,243.90 400.39,238.82 C398.64,226.04 412.88,218.73 419.72,228.90 C423.23,234.13 422.27,244.11 417.90,247.63 C415.52,249.56 410.65,250.01 407.50,248.61 Z" fill="rgb(254,254,254)"/>
</g>
</svg>